<svg xmlns="http://www.w3.org/2000/svg" width="101.192" height="80" viewBox="0 0 101.192 80">
  <g id="logo" transform="translate(0.05 0.001)">
    <path id="Path_1" data-name="Path 1" d="M824.419,530.887a2.3,2.3,0,0,0-.946-.634,4.7,4.7,0,0,0,1.87-1.429,3.309,3.309,0,0,0,.609-2,3.584,3.584,0,0,0-1.4-3.113,7.294,7.294,0,0,0-4.269-1.009H815.03v14.2h3.561v-5.8h.417a2.36,2.36,0,0,1,2.581,1.705l1.835,4.094h4.01l-2.259-4.864A4.411,4.411,0,0,0,824.419,530.887Zm-2.637-2.773a2.2,2.2,0,0,1-1.467.413h-1.705v-3.309h1.705a2.2,2.2,0,0,1,1.453.42,1.509,1.509,0,0,1,.5,1.222A1.552,1.552,0,0,1,821.782,528.114Z" transform="translate(-815.08 -489.381)" fill="#fff"/>
    <path id="Path_2" data-name="Path 2" d="M859.095,522.7,852.9,536.9h3.786l1.138-2.763h6.125l1.012,2.763h3.768L863.2,522.7Zm-.245,9,2.2-5.4,1.989,5.4Z" transform="translate(-839.689 -489.381)" fill="#fff"/>
    <path id="Path_3" data-name="Path 3" d="M910.622,523.721a7.1,7.1,0,0,0-4.269-1.051H901.1v14.2h3.575V531.33h1.38a7.445,7.445,0,0,0,4.458-1.1,3.847,3.847,0,0,0,1.481-3.306A3.715,3.715,0,0,0,910.622,523.721Zm-2.756,4.451a2.349,2.349,0,0,1-1.492.4h-1.684v-3.25h1.705a2.216,2.216,0,0,1,1.45.424,1.467,1.467,0,0,1,.508,1.2A1.485,1.485,0,0,1,907.866,528.171Z" transform="translate(-871.01 -489.361)" fill="#fff"/>
    <path id="Path_4" data-name="Path 4" d="M136.541,95.15v2.64h7.168l-7.82,11.563h13.829v-2.742H142l7.76-11.461Z" transform="translate(-88.336 -61.831)" fill="#fff"/>
    <path id="Path_5" data-name="Path 5" d="M182.951,95.15v2.64h7.168l-7.82,11.563h13.829v-2.742h-7.715l7.757-11.461Z" transform="translate(-118.494 -61.831)" fill="#fff"/>
    <path id="Path_6" data-name="Path 6" d="M1049.285,522.7h-4.1L1039,536.9h3.789l1.135-2.763h6.125l1.016,2.763h3.764Zm-4.332,9,2.2-5.4,1.992,5.4Z" transform="translate(-960.62 -489.381)" fill="#fff"/>
    <path id="Path_7" data-name="Path 7" d="M976.893,568.947v-.018a1.152,1.152,0,0,0-1.586-.045L950.5,591.274a5.053,5.053,0,0,1,1.916,3.232L976.9,570.344A.991.991,0,0,0,976.893,568.947Z" transform="translate(-903.111 -519.2)" fill="#fff"/>
    <circle id="Ellipse_9" data-name="Ellipse 9" cx="3.243" cy="3.243" r="3.243" transform="translate(40.387 78.52) rotate(-76.82)" fill="#fff"/>
    <path id="Path_8" data-name="Path 8" d="M993.738,450.4a75.678,75.678,0,0,0-36.923-20.78,68.527,68.527,0,0,0-18.847-2.017l-1.968.1v5.015l.249-.028a59.959,59.959,0,0,1,15.527,1.1,79.306,79.306,0,0,1,33.989,15.51c.792.676,4.584,3.891,6.058,5.193l3.008-2.973Z" transform="translate(-893.688 -427.55)" fill="#fff"/>
    <path id="Path_9" data-name="Path 9" d="M989.8,471.378a70.367,70.367,0,0,0-21.666-14.872,7.459,7.459,0,1,1-13.888-4.517A64.878,64.878,0,0,0,936,450.4v4.388a6.118,6.118,0,1,1,0,11.8v6.363h29.415a3.722,3.722,0,1,1,5.214,0h17.488Zm-39.5-.242a2.588,2.588,0,1,1,1.832-.757A2.591,2.591,0,0,1,950.3,471.137Zm29.618-.62a2.5,2.5,0,1,1,2.5-2.493A2.5,2.5,0,0,1,979.916,470.517Z" transform="translate(-893.689 -442.324)" fill="#fff"/>
    <path id="Path_10" data-name="Path 10" d="M939.99,525.343v-1.4a1.24,1.24,0,0,0-1.243-1.233h-.48a1.257,1.257,0,0,0-1.257,1.243v1.4Z" transform="translate(-894.345 -489.387)" fill="#fff"/>
    <path id="Path_11" data-name="Path 11" d="M936.29,533.17l-.35,34.426a5.047,5.047,0,0,1,1.968-.4,5.135,5.135,0,0,1,1.618.266l-.242-34.3Z" transform="translate(-893.65 -496.184)" fill="#fff"/>
  </g>
</svg>
